<svg id="Layer_1" data-name="Layer 1" xmlns="http://www.w3.org/2000/svg" viewBox="0 0 170.1 43.2"><path d="M37.7,32.7a13.19,13.19,0,0,0,5.5-5.2,14.91,14.91,0,0,0,1.9-7.7,15.38,15.38,0,0,0-2.2-8.3,13.88,13.88,0,0,0-6.3-5.4,21.78,21.78,0,0,0-9.5-1.9H8.1V45.5H21.4V35.3h3.8l6.5,10.1H46L39.4,35.3ZM25.2,28a5.81,5.81,0,0,1-4.8-.7,2.08,2.08,0,0,1-.8-1.6,17.87,17.87,0,0,1,.1-3.9,24,24,0,0,1,.4-4.5,3.22,3.22,0,0,1,1.5-1.6,5.36,5.36,0,0,1,4.5-.9,8.3,8.3,0,0,1,4.7,2.8,6.41,6.41,0,0,1,0,6.8,9.86,9.86,0,0,0-.8,1.8C29.4,27,27.3,27.5,25.2,28Z" transform="translate(-8.1 -3.2)"/><path d="M82.1,6A24.15,24.15,0,0,0,70.6,3.2,23,23,0,0,0,59.1,6a20.42,20.42,0,0,0-8,7.7,21.88,21.88,0,0,0-2.9,11.1,21.5,21.5,0,0,0,2.6,10.5l.3.6a20.44,20.44,0,0,0,8,7.7,24.15,24.15,0,0,0,11.5,2.8,23,23,0,0,0,11.5-2.8,20.42,20.42,0,0,0,8-7.7l.3-.6A21.5,21.5,0,0,0,93,24.8a21.88,21.88,0,0,0-2.9-11.1A21.13,21.13,0,0,0,82.1,6ZM70.6,14.7a7.08,7.08,0,0,1,4.6,1.2c2.9,2.6,4.7,5.1,4.7,8.9a9.62,9.62,0,0,1-2.3,5.9c-1.8,2.5-4.2,4.9-7,4.2-2.5-.6-4.6-1.1-6.3-2.9a10.27,10.27,0,0,1-2.9-7.3C61.4,19.2,65.3,14.7,70.6,14.7Z" transform="translate(-8.1 -3.2)"/><path d="M130.3,6a24.15,24.15,0,0,0-11.5-2.8A23,23,0,0,0,107.3,6a20.42,20.42,0,0,0-8,7.7,21.88,21.88,0,0,0-2.9,11.1A22.18,22.18,0,0,0,99,35.4a2.19,2.19,0,0,0,.3.5,20.44,20.44,0,0,0,8,7.7,24.15,24.15,0,0,0,11.5,2.8,23,23,0,0,0,11.5-2.8,20.42,20.42,0,0,0,8-7.7,2.19,2.19,0,0,1,.3-.5,21.89,21.89,0,0,0,2.6-10.6,21.88,21.88,0,0,0-2.9-11.1A20.42,20.42,0,0,0,130.3,6ZM112.4,19.6c2-2.9,4.4-4.6,7-4.9.8,0,2.6,1,5.2,3.1s2.9,3.1,2.9,4c1,3-.6,7.1-3.7,9.4-3.9,2.9-7.4,3.9-11,2.9-2.2-1-3.3-3.5-3.4-6.1A14.87,14.87,0,0,1,112.4,19.6Z" transform="translate(-8.1 -3.2)"/><path d="M161.3,15.5a6.52,6.52,0,0,1,2.9-.9h14V4.1H146V45.4h13.3V35.3h16.5V24.8h-9.1a22.41,22.41,0,0,1-5-.1,3.42,3.42,0,0,1-1.8-1.3,4.41,4.41,0,0,1-1.2-4.1A6.13,6.13,0,0,1,161.3,15.5Z" transform="translate(-8.1 -3.2)"/></svg>